<svg id="Layer_1" data-name="Layer 1" xmlns="http://www.w3.org/2000/svg" viewBox="0 0 3919 696"><title>fruits_&amp;amp;_veggies</title><path d="M38.23,696q-6.94,0-16-4.52T6.6,673.73Q0,660.5,0,634.75q0-30.64,10.43-79.69t28.5-108.23Q57,387.68,80.63,325.38T131.72,205q27.45-58.1,56.3-104.4t56.65-73.43Q272.46,0,297.5,0q14.6,0,19.11,9t4.52,21.58q0,29.93-16.33,65.42t-43.44,71.34a635.65,635.65,0,0,1-59.78,68.21,486.18,486.18,0,0,1-66,55.33q-3.49,8.35-6.6,17.05t-6.6,17.75a18.26,18.26,0,0,1,12.16,8A29.82,29.82,0,0,1,139.71,348q4.86,31.32,10.43,56t17,38.63q11.47,13.93,33,13.92,24.32,0,41-17.75t36.14-50.46l10.43,7q-17.38,41.76-44.14,60.55t-46.92,18.79q-12.51,0-26.07-6.26a104.33,104.33,0,0,1-25.37-16.7,408.32,408.32,0,0,1-9.38,87q-9.38,43.15-24.68,78.65T77.15,674.42Q58.39,696,38.23,696ZM56.3,662.59q7.64,0,17.38-13.92t19.11-36.54a446.43,446.43,0,0,0,17-49.76q7.64-27.14,12.51-54.29t4.87-48.72A131.27,131.27,0,0,0,121.64,420q-5.57-17.75-18.07-42.11-17.38,52.2-31.28,100.92t-21.55,87.7q-7.64,39-7.65,62.64Q43.1,662.59,56.3,662.59Zm90.36-400.2q45.18-41.76,78.2-83.87t51.09-75.17q18.07-33,18.07-47,0-9.74-9.73-9.74-18.08,0-41,29.58t-48,78.3Q170.3,203.24,146.66,262.39Z"/><path d="M384.38,519.22q-23.64,0-37.19-12.53T333.64,474q0-20.88,9.73-43.85t19.11-45.59q9.38-22.61,9.38-40.72,0-22.27-12.86-33.06t-26.07-19.84q-16,41.08-33.36,78t-28.5,55.68l-6.26-11.83q9.73-18.09,25.37-52.9t30.93-79.34a22.76,22.76,0,0,1-7-16.7q0-20.88,11.82-34.1t17.38-13.22q7.64,0,8.69,6.61a70.36,70.36,0,0,1,1,10.09q0,3.49-3.82,13.57t-3.82,12.18q0,9.75,10.77,17.75t24.68,18.1a117.41,117.41,0,0,1,24.68,24.36q10.77,14.27,10.77,36.54a113.16,113.16,0,0,1-8.69,42.46q-8.7,21.58-17.38,41.06t-8.69,34.1q0,12.53,6.26,16.7a25.67,25.67,0,0,0,14.6,4.18q16.68,0,34.41-10.44a186.65,186.65,0,0,0,34.41-26.45,271.14,271.14,0,0,0,29.89-33.76q13.2-17.75,19.46-33.06l9,7q-13.21,29.23-36.14,57.42a217.64,217.64,0,0,1-51.09,46.28Q414.27,519.21,384.38,519.22Z"/><path d="M558.14,522q-23.64,0-37.88-21.23T506,451.7q0-20.18,6.6-46.63a467.12,467.12,0,0,1,16.33-52.2q9.73-25.74,20.16-42.46t18.07-16.7q3.47,0,11.82,3.83a41.48,41.48,0,0,1,13.9,10.09q-7.66,11.84-18.77,36.19A406.67,406.67,0,0,0,554.67,396q-8.34,27.85-8.34,51.5a154.85,154.85,0,0,0,1.39,17.05,50,50,0,0,0,7,20.53q5.56,9.05,16.68,9,13.2,0,27.11-13.57t28.15-35.15q14.24-21.57,27.46-46.63t24.68-48q11.47-23,19.11-38.28,4.17.7,12.16,2.78a68.57,68.57,0,0,1,14.6,5.57q6.6,3.49,6.6,9.74,0,2.79-7,18.44t-16.33,38.28Q698.55,410,691.6,432.91t-7,40.37q0,12.53,5.21,20.18t17.72,7.66q14.6,0,35.45-13.22t42.4-38.63q21.54-25.4,38.23-60.9l9,6.26q-14.6,37.58-38.23,66.47t-50,44.89Q718,522,693,522q-18.08,0-28.85-7a38,38,0,0,1-15.29-18.79,71.41,71.41,0,0,1-4.52-25.75,107.24,107.24,0,0,1,1.39-17.05q1.39-8.7,3.48-17.75a373.71,373.71,0,0,1-27.11,42.8q-14.6,19.84-30.58,31.67T558.14,522Z"/><path d="M860.5,519.22q-27.11,0-40.32-17.05T807,460.75q0-16,5.91-40.37a483,483,0,0,1,15.64-51.16,369.4,369.4,0,0,1,22.59-50.46q12.86-23.65,27.46-38.63t28.5-15A16.18,16.18,0,0,1,917.84,269q4.51,3.83,4.52,11.48,0,8.35-10.77,27.14t-25.37,43.15a362.54,362.54,0,0,0-25.37,51.16q-10.78,26.8-10.77,51.16,0,25.06,8.34,33.41t25.72,8.35q23.62,0,50.39-23.66t56.65-82.82l6.26,7q-20.17,59.87-58,91.87T860.5,519.22Zm83.41-318.77a35.85,35.85,0,0,1-19.81-5.57q-8.7-5.56-8.69-17.4,0-14.61,17-25.4t33.71-10.79q10.43,0,16.68,4.87t6.26,16.7q0,13.23-14.25,25.4T943.91,200.45Z"/><path d="M1037,533.14q-29.89,0-45.87-17.4t-16-51.5q0-30.62,11.47-75.52a950.28,950.28,0,0,1,28.85-92.22q-7-1.39-13.21-2.44a63,63,0,0,1-11.82-3.13V278.4q5.55.7,13.21,1.39t17.38,1.39q14.6-37.58,31.28-72.73t33-62.64q16.32-27.49,31.28-43.85T1142,85.61a15.27,15.27,0,0,1,10.08,3.83q4.51,3.83,4.52,11.48,0,11.84-14.6,38.63t-36.14,63.68q-21.55,36.9-41.71,80h25.72q22.94,0,48.31-.7t51.09-3.48v12.53q-38.23,4.18-68.46,6.26T1066.93,300h-10.43a612.93,612.93,0,0,0-27.11,75.86q-11.13,39-11.12,75.86,0,29.93,9,42.8t29.89,12.88q36.13,0,70.9-32t61.17-87l9,7a296,296,0,0,1-42.05,70.3q-25.38,31.32-56,49.42T1037,533.14Z"/><path d="M1249,536.62q-32.68,0-51.78-14.27t-27.11-35.15a116.25,116.25,0,0,1-8-41.76q0-20.88,5.56-32t13.55-16.7a72.18,72.18,0,0,1,15.29-8.35q7.3-2.77,10.08-5.57a469.74,469.74,0,0,0,38.23-48,374.49,374.49,0,0,0,30.58-52.9v-8.35q0-25.74,8.69-36.54t18.42-10.79c3.7,0,6.48.93,8.34,2.78a8.7,8.7,0,0,1,2.78,6.26q0,3.49-2.08,11.14t-2.08,19.49q0,23,9,49.76T1336.62,372a210,210,0,0,1,9,61.6,148.91,148.91,0,0,1-1,17.75,113.39,113.39,0,0,1-3.13,16.36q24.32-4.18,45.88-21.92t41.71-56.72l6.26,7q-13.21,38.28-39.62,58.12A127.59,127.59,0,0,1,1338,478.85q-11.13,29.93-35.1,43.85T1249,536.62Zm1.39-24.36q8.34,0,22.24-5.57t21.55-28.54a120.48,120.48,0,0,1-51.78-23q-22.6-17.39-33.71-34.8-15.3.7-15.29,24.36A78.68,78.68,0,0,0,1208.37,491Q1223.31,512.25,1250.43,512.26ZM1297.69,467a140,140,0,0,0,2.08-14.62q.68-7.65.7-18.1a270.86,270.86,0,0,0-8-65.08q-8-32.36-13.55-60.9-16,26.46-33.71,50.46t-33.71,40q10.43,22.28,32.32,41.76T1297.69,467Z"/><path d="M1730,561.67q-41.71,0-72.29-17.4T1610.81,498a125.72,125.72,0,0,1-16.33-63,150,150,0,0,1,13.9-62.64,196.94,196.94,0,0,1,38.58-56,210.75,210.75,0,0,1,57.34-41.76,196,196,0,0,1,70.2-19.84q-27.11-22.27-40-51.5t-12.86-58.46a139.58,139.58,0,0,1,18.77-69.95,150.92,150.92,0,0,1,51.09-53.59Q1823.86.71,1865.56.7q37.53,0,56.65,18.79t19.11,55a156.71,156.71,0,0,1-8.34,50.46q-8.34,24.71-20.5,40.37t-24,15.66q-7.66,0-14.6-6.61a50.47,50.47,0,0,1-11.12-15.66,259,259,0,0,0,40.66-44.89q16.32-23.31,16.33-50.46,0-21.56-11.47-35.15t-35.8-13.57q-32.68,0-54.91,19.84t-33.71,52.2q-11.47,32.36-11.47,69.95a216.64,216.64,0,0,0,3.13,35.5A136.63,136.63,0,0,0,1787.36,229a102.28,102.28,0,0,0,25.37,32.71q-46.58,7.67-81,35.5t-53.52,65.42q-19.12,37.58-19.11,74.47a131.66,131.66,0,0,0,8.69,46.28,89,89,0,0,0,28.15,39Q1715.41,538,1748.09,538q36.83,0,71.25-18.79t62.56-50.11a279.78,279.78,0,0,0,46.22-70.64,267.34,267.34,0,0,0,22.94-81.08q-14.6.7-26.76,2.09t-26.76,3.83q-14.6,2.45-37.53,7.31,1.38-29.23,22.24-39t50-9.74a271.11,271.11,0,0,1,39.62,2.78q18.77,2.79,35.8,5.57a277.25,277.25,0,0,0,30.93,3.48q-7.66,16-14.94,19.14a36,36,0,0,1-14.25,3.13q-11.83,0-21.89.35t-18.42.35a272.81,272.81,0,0,1-26.07,91.87,303.29,303.29,0,0,1-54.22,78.3,264.83,264.83,0,0,1-73.68,54.64A189.2,189.2,0,0,1,1730,561.67Z"/><path d="M2250.63,528.26q-21.55,0-29.89-21.23t-8.34-55.33q0-1.39.69-21.92t3.48-69.25q1.39-18.79,4.17-25.75t18.07-7q11.81,0,14.94,4.52t3.13,17.75q0,23-3.13,53.94a580,580,0,0,0-3.13,58.12q0,20.19,3.48,29.58t12.51,9.4q12.51,0,27.8-14.27t31.28-37.58a545.32,545.32,0,0,0,30.24-49.76q14.24-26.44,25.37-50.81,1.39-47.32,10.08-63t21.9-15.66q13.2,0,19.11,9.4t5.91,17.05q0,9.05-5.91,18.79t-12.16,26.45q-6.25,16.7-6.26,48a144.34,144.34,0,0,0,2.09,23.66q2.08,12.53,9,20.88t21.55,8.35q14.6,0,28.15-11.48t26.76-40l9,7q-15.3,34.81-33.71,46.63t-35.1,11.83q-22.94,0-38.23-16.7t-20.16-50.81a465.2,465.2,0,0,1-39.27,65.77q-22.6,31.68-46.92,52.55T2250.63,528.26Z"/><path d="M2563.42,531.74q-42.41,0-63.6-23.32T2478.62,451q0-31.32,15.64-66.12A274.27,274.27,0,0,1,2536,319.46q26.07-30.62,57.34-49.76t61.86-19.14a55.27,55.27,0,0,1,29.54,8.35q13.55,8.35,13.55,34.1,0,26.46-15.64,49.76t-41,41.41A245.11,245.11,0,0,1,2586,413.77,228.48,228.48,0,0,1,2525.88,428q-1.4,7-2.08,13.22a106.76,106.76,0,0,0-.7,11.83,91.33,91.33,0,0,0,2.43,20.88,53,53,0,0,0,8.69,19.14,41.44,41.44,0,0,0,17,13.57q10.77,4.86,26.76,4.87,29.88,0,59.08-17.05t54.22-44.89a294.53,294.53,0,0,0,42.4-61.25l8.34,6.26q-18.77,41.76-47.61,72.38t-62.56,47.68Q2598.16,531.74,2563.42,531.74Zm-34.06-116.93q18.77-6.26,42.4-18.44a306.26,306.26,0,0,0,45.53-28.88,169.65,169.65,0,0,0,36.14-36.89q14.24-20.18,14.25-42.46,0-7.65-2.78-11.83t-11.82-4.18q-16.68,0-35.45,12.88t-36.14,33.76a295.81,295.81,0,0,0-31.28,45.94A229.48,229.48,0,0,0,2529.36,414.82Z"/><path d="M2746.22,696a45.2,45.2,0,0,1-27.8-9.4q-12.51-9.4-12.51-31,0-20.88,12.86-38.63a152.2,152.2,0,0,1,33-32.71,330.12,330.12,0,0,1,44.14-27.49q24-12.53,45.53-23.66,9.73-24.37,18.42-52.55t17-62.29q-26.42,38.29-55.26,63.68t-58,25.4q-25,0-38.58-18.79t-13.55-48.72a142.64,142.64,0,0,1,17.72-68.9,209,209,0,0,1,46.22-57.77,239.06,239.06,0,0,1,60.47-39.32q32-14.26,59.78-14.27,20.15,0,28.85,6.61t8.69,15.66q0,6.26-3.48,9.74a25.21,25.21,0,0,1-4.87,4.18,19.44,19.44,0,0,0-10.43-8q-7-2.43-17.38-2.44-27.11,0-52.48,16a174.5,174.5,0,0,0-44.83,41.06,235.9,235.9,0,0,0-30.93,51.85q-11.47,26.8-11.47,49.07,0,16.7,6.6,25.4a21.08,21.08,0,0,0,17.72,8.7q20.15,0,48.31-26.8t54.56-65.08q2.09-9.74,3.82-17.4t4.52-19.49Q2895,339,2903,326.08t25.37-12.88q3.47,0,7,.35a36.33,36.33,0,0,1,7.65,1.74q0,11.14-6.6,40.72t-18.77,68.9q-12.17,39.33-28.15,81.08a241.67,241.67,0,0,0,44.83-28.54,250.81,250.81,0,0,0,40-40,189.58,189.58,0,0,0,28.5-49.07l9,7a162.14,162.14,0,0,1-33.36,57.07,302.83,302.83,0,0,1-49,44.54q-26.07,18.79-47.61,29.23a839.78,839.78,0,0,1-41,85.26q-21.55,38.63-44.83,61.6T2746.22,696Zm-2.08-22.27q13.9,0,37.88-27.49t51.78-94.31Q2806,565.84,2782,580.81t-39.27,31.67q-15.3,16.71-15.29,36.89,0,11.13,4.87,17.75T2744.13,673.73Z"/><path d="M3016.6,696a45.2,45.2,0,0,1-27.8-9.4q-12.51-9.4-12.51-31,0-20.88,12.86-38.63a152.2,152.2,0,0,1,33-32.71,330.12,330.12,0,0,1,44.14-27.49q24-12.53,45.53-23.66,9.73-24.37,18.42-52.55t17-62.29Q3120.85,456.58,3092,482t-58,25.4q-25,0-38.58-18.79t-13.55-48.72a142.64,142.64,0,0,1,17.72-68.9,209,209,0,0,1,46.22-57.77,239.06,239.06,0,0,1,60.47-39.32q32-14.26,59.78-14.27,20.15,0,28.85,6.61t8.69,15.66q0,6.26-3.48,9.74a25.21,25.21,0,0,1-4.87,4.18,19.44,19.44,0,0,0-10.43-8q-7-2.43-17.38-2.44-27.11,0-52.48,16a174.5,174.5,0,0,0-44.83,41.06,235.9,235.9,0,0,0-30.93,51.85q-11.47,26.8-11.47,49.07,0,16.7,6.6,25.4a21.08,21.08,0,0,0,17.72,8.7q20.15,0,48.31-26.8t54.56-65.08q2.09-9.74,3.82-17.4t4.52-19.49q2.09-9.74,10.08-22.62t25.37-12.88q3.47,0,7,.35a36.33,36.33,0,0,1,7.65,1.74q0,11.14-6.6,40.72t-18.77,68.9q-12.17,39.33-28.15,81.08a241.67,241.67,0,0,0,44.83-28.54,250.81,250.81,0,0,0,40-40,189.58,189.58,0,0,0,28.5-49.07l9,7a162.14,162.14,0,0,1-33.36,57.07,302.83,302.83,0,0,1-49,44.54q-26.07,18.79-47.61,29.23a839.78,839.78,0,0,1-41,85.26q-21.55,38.63-44.83,61.6T3016.6,696Zm-2.08-22.27q13.9,0,37.88-27.49t51.78-94.31q-27.81,13.91-51.78,28.88t-39.27,31.67q-15.3,16.71-15.29,36.89,0,11.13,4.87,17.75T3014.52,673.73Z"/><path d="M3310.62,519.22q-27.11,0-40.31-17.05t-13.21-41.41q0-16,5.91-40.37a482.91,482.91,0,0,1,15.64-51.16,369.23,369.23,0,0,1,22.59-50.46q12.85-23.65,27.46-38.63t28.5-15A16.18,16.18,0,0,1,3368,269q4.51,3.83,4.52,11.48,0,8.35-10.77,27.14t-25.37,43.15A362.65,362.65,0,0,0,3311,401.94q-10.78,26.8-10.77,51.16,0,25.06,8.34,33.41t25.72,8.35q23.62,0,50.39-23.66t56.65-82.82l6.26,7q-20.17,59.87-58,91.87T3310.62,519.22ZM3394,200.45a35.84,35.84,0,0,1-19.81-5.57q-8.7-5.56-8.69-17.4,0-14.61,17-25.4t33.71-10.79q10.43,0,16.68,4.87t6.26,16.7q0,13.23-14.25,25.4T3394,200.45Z"/><path d="M3503.15,531.74q-42.41,0-63.6-23.32T3418.35,451q0-31.32,15.64-66.12a274.27,274.27,0,0,1,41.71-65.42q26.07-30.62,57.34-49.76t61.86-19.14a55.27,55.27,0,0,1,29.54,8.35Q3638,267.26,3638,293q0,26.46-15.64,49.76t-41,41.41a245.11,245.11,0,0,1-55.61,29.58A228.48,228.48,0,0,1,3465.62,428q-1.4,7-2.08,13.22a106.76,106.76,0,0,0-.7,11.83,91.33,91.33,0,0,0,2.43,20.88,53,53,0,0,0,8.69,19.14,41.44,41.44,0,0,0,17,13.57q10.77,4.86,26.76,4.87,29.88,0,59.08-17.05T3631,449.62a294.53,294.53,0,0,0,42.4-61.25l8.34,6.26Q3663,436.39,3634.17,467t-62.56,47.68Q3537.89,531.74,3503.15,531.74Zm-34.06-116.93q18.77-6.26,42.4-18.44A306.26,306.26,0,0,0,3557,367.49a169.65,169.65,0,0,0,36.14-36.89q14.24-20.18,14.25-42.46,0-7.65-2.78-11.83t-11.82-4.18q-16.68,0-35.45,12.88t-36.14,33.76a295.81,295.81,0,0,0-31.28,45.94A229.48,229.48,0,0,0,3469.09,414.82Z"/><path d="M3732.52,536.62q-32.68,0-51.78-14.27t-27.11-35.15a116.25,116.25,0,0,1-8-41.76q0-20.88,5.56-32t13.55-16.7a72.18,72.18,0,0,1,15.29-8.35q7.3-2.77,10.08-5.57a469.74,469.74,0,0,0,38.23-48,374.49,374.49,0,0,0,30.58-52.9v-8.35q0-25.74,8.69-36.54T3786,226.2c3.7,0,6.48.93,8.34,2.78a8.7,8.7,0,0,1,2.78,6.26q0,3.49-2.08,11.14T3793,265.87q0,23,9,49.76T3820.1,372a210,210,0,0,1,9,61.6,148.91,148.91,0,0,1-1,17.75,113.39,113.39,0,0,1-3.13,16.36q24.32-4.18,45.88-21.92t41.71-56.72l6.26,7q-13.21,38.28-39.62,58.12a127.59,127.59,0,0,1-57.69,24.71q-11.13,29.93-35.1,43.85T3732.52,536.62Zm1.39-24.36q8.34,0,22.24-5.57t21.55-28.54a120.48,120.48,0,0,1-51.78-23q-22.6-17.39-33.71-34.8-15.3.7-15.29,24.36A78.68,78.68,0,0,0,3691.86,491Q3706.8,512.25,3733.91,512.26ZM3781.18,467a140,140,0,0,0,2.08-14.62q.68-7.65.7-18.1a270.86,270.86,0,0,0-8-65.08q-8-32.36-13.55-60.9-16,26.46-33.71,50.46t-33.71,40q10.43,22.28,32.32,41.76T3781.18,467Z"/></svg>