<?xml version="1.0" encoding="utf-8"?>
<!-- Generator: Adobe Illustrator 21.0.0, SVG Export Plug-In . SVG Version: 6.00 Build 0)  -->
<svg version="1.1" xmlns="http://www.w3.org/2000/svg" xmlns:xlink="http://www.w3.org/1999/xlink" x="0px" y="0px"
	 viewBox="0 0 438.6 329.8" style="enable-background:new 0 0 438.6 329.8;" xml:space="preserve">
<style type="text/css">
	.st0{fill:#DDECFF;}
	.st1{fill:#60A8FF;}
	.st2{fill:#223A7A;}
	.st3{fill:#FFFFFF;}
	.st4{fill:#1C83FF;}
	.st5{fill:#FF9D8C;}
	.st6{fill:#8593B6;}
	.st7{fill:#8E9BBB;}
	.st8{fill:#DEE1EB;}
	.st9{fill:#818FB3;}
	.st10{fill:#6BAEFF;}
	.st11{fill:#43588E;}
	.st12{fill:#F6F7FA;}
	.st13{fill:#D9DEE8;}
	.st14{fill:#596B9B;}
	.st15{fill:#7A89AF;}
	.st16{fill:#BDC4D7;}
	.st17{fill:#6F7FA9;}
	.st18{fill:#9CA6C3;}
	.st19{fill:#D2E6FF;}
	.st20{fill:#FF5F42;}
	.st21{fill:#67ACFF;}
</style>
<g id="BACKGROUND">
</g>
<g id="OBJECTS">
	<g>
		<path class="st0" d="M363.5,312.4c0,0,54.6-38.9,70.3-105.1c15.7-66.2-8.3-146.5-53.8-187C334.5-20.3,252.6,7,216.2,41
			s-36.4,33.9-36.4,33.9s-34.8,19-80.3,17.4c-45.5-1.7-86.1,60.4-96.8,109.2c-10.8,48.8,14.9,113.4,14.9,113.4L363.5,312.4z"/>
		<path class="st0" d="M388.3,322.3c0,0,38.1-20.7,48-68.7s-33.1-91.9-37.2-115.9c-4.1-24,5-53.8-33.1-77
			C327.9,37.6,260,45.9,234.4,40.1c-25.7-5.8-55.4-45.5-106.8-36.4c-51.3,9.1-101,36.4-103.4,96c-2.5,59.6,16.6,61.2-2.5,93.5
			C2.6,225.5-4.8,247.9,4.3,281c9.1,33.1,28.1,42.2,28.1,42.2L388.3,322.3z"/>
		<path class="st0" d="M308.8,311.6c2.4-2.5,37.1-72-1.6-135.7c-38.7-63.7-135.8-56.3-174.5-31.4s-57.6,57.1-61.6,91
			c-3.9,33.9,22.1,86.9,22.1,86.9L308.8,311.6z"/>
		<g>
			<g>
				<path class="st1" d="M36.5,194.5h44.6c2.8,0,5-2.2,5-5v-22.3c0-2.8-2.2-5-5-5H36.5c-2.8,0-5,2.2-5,5v22.3
					C31.5,192.3,33.7,194.5,36.5,194.5z"/>
				<polygon class="st1" points="58.8,207.2 51.7,190.4 65.8,190.4 				"/>
			</g>
			<g>
				<g>
					<g>
						<polygon class="st2" points="58.9,172.9 46.2,172.9 46.2,174.7 39.9,171.1 46.2,167.5 46.2,169.4 58.9,169.4 						"/>
					</g>
					<g>
						<polygon class="st3" points="39.9,180.2 52.7,180.2 52.7,178.3 58.9,182 52.7,185.6 52.7,183.7 39.9,183.7 						"/>
					</g>
				</g>
				<g>
					<path class="st2" d="M66.8,183.5l0.6,0.2c0,0,1.9-2.2,2.9-4.5c1-2.4,1-5.2,1-5.2l-0.4-0.2l2.7-6.5c0.5,0.4,0.9,0.9,1.3,1.5
						c1.5,2.6,1.4,6.5-0.2,10.4c-1.5,3.9-3.2,7.3-6.2,9.5c-1.8,1.3-3.3,1.5-4.5,1.3L66.8,183.5z"/>
					<path class="st2" d="M64.8,182.7l0.8,0.3l-2.8,6.6c-0.3-0.1-0.6-0.2-0.8-0.4c-0.7-0.4-1-1.2-0.7-2l1.4-3.6
						C63.1,182.8,64,182.4,64.8,182.7z"/>
					<path class="st2" d="M71.4,166.2c0.3,0.1,0.7,0.3,1.1,0.5l-2.8,6.6l-0.9-0.4c-0.8-0.3-1.2-1.3-0.9-2.1l1.5-3.7
						C69.7,166.3,70.6,165.9,71.4,166.2z"/>
				</g>
			</g>
		</g>
		<g>
			<path class="st4" d="M321.7,300.4v-74.5c0,0,0.8-20.1-9.7-25.9c-10.6-5.8-55-2.7-55-2.7v103H321.7z"/>
		</g>
		<g>
			<g>
				<path class="st5" d="M243,127.6c0,0,2.7,22.6,3.7,24.4c1,1.9,1,1.9,1,1.9l5.2,3.5c0,0-9.9,14.1-22.1,16.3
					c-12.2,2.3-11.2-5-11.2-5l1.9-3.9l-2.5-21.5C219,143.4,241.2,133.2,243,127.6z"/>
			</g>
			<path class="st3" d="M259.4,159.3l-8.1-3.5c0,0-5.2,8.5-17.2,13.4s-12.2,2.1-12.8,0c-0.6-2.1,0.2-4.3,0.2-4.3l-0.9-7.2l-4.8,1.6
				L199.2,294l42.8,2.1L259.4,159.3z"/>
			<g>
				<path class="st2" d="M219.9,157.8c0,0-2.9,6.7-5.6,22.4s-5.2,42.2-5.8,60.4s-1,59.8-1,59.8s-53.4,0-54,0s-4.3-20.5-4.3-20.5
					s23.6-20.2,24.8-23.5c0.8-2.2,0.4-43.1,3.9-61.9c3.5-18.8,8.1-22.6,17.6-27.3C205.3,162.3,219.9,157.8,219.9,157.8z"/>
			</g>
			<g>
				<path class="st6" d="M191.7,276.7c0.3,0,0.5-0.2,0.5-0.5c0-1.5,0.3-22.5,0.5-42.8c0.3-20.3,0.5-41.3,0.5-42.8
					c0-0.3-0.2-0.5-0.5-0.5s-0.5,0.2-0.5,0.5c0,1.5-0.3,22.5-0.5,42.8c-0.3,20.3-0.5,41.3-0.5,42.8
					C191.2,276.5,191.5,276.7,191.7,276.7z"/>
			</g>
			<g>
				<path class="st2" d="M299.3,271.6l0.4,28.8h-62.9c0,0-2.7-24.4-1.7-26.7C236.2,271.4,299.3,271.6,299.3,271.6z"/>
			</g>
			<g>
				<path class="st7" d="M229.3,151.4c-2.6,2.1-6.1,3.7-8.8,4.7l-1.5-12.8c0,0,16.6-7.6,22.3-13.3
					C240.1,136.5,237.2,145.1,229.3,151.4z"/>
			</g>
			<g>
				<path class="st5" d="M199.6,85.6c0,0-4.3,7.4-5.2,16.6c-0.8,9.1,0,32.5,7.4,42.4c7.4,9.9,23,7,30,1c6.5-5.5,12.8-11.6,14.5-23.6
					c1.7-12-3.5-34.8-18.2-39.5C213.5,77.8,199.6,85.6,199.6,85.6z"/>
			</g>
			<g>
				<g>
					<path class="st5" d="M180.9,287.4c0,0,0.7,0,1.8,0c0.3,0,0.6,0,0.8,0c1.1,0,2.4-0.1,3.7-0.1c0.3,0,0.6,0,0.9,0
						c1.3,0,2.4,0.1,3.4,0.1h0c0.2,0,0.5,0,0.8,0c0.1,0,0.3,0,0.3,0c0.6-0.1,0.7-0.3,1.4-0.5c0.8-0.4,12.2-2.9,21.5-2.9
						c9.2,0,17.5,0.7,18.9-0.5c1.4-1.1,2.2-12.8-5.7-13.5l-9.7,3.7c0,0-22.1-2.6-30.3,3.4C180.7,283,180.9,287.4,180.9,287.4z"/>
				</g>
				<g>
					<g>
						<path class="st2" d="M191.7,287.3c0.2,0,0.5,0,0.8,0c0.2-0.3,0.6-0.9,0.8-1.1c2.5-2.6,8.5-4.2,10.7-4.7
							c0.2-0.1,0.3-0.3,0.3-0.5c0-0.2-0.3-0.3-0.5-0.3c-3.2,0.8-10,2.7-11.9,6C191.9,286.8,191.8,287.1,191.7,287.3z"/>
					</g>
				</g>
				<g>
					<g>
						<path class="st2" d="M187.3,287.3c0.3,0,0.6,0,0.9,0c2.7-5,7.2-6.4,12.7-8.2l0.3-0.1c0.2-0.1,0.3-0.3,0.2-0.5
							c-0.1-0.2-0.3-0.3-0.5-0.2l-0.3,0.1C194.8,280.2,190.1,281.7,187.3,287.3z"/>
					</g>
				</g>
				<g>
					<g>
						<path class="st2" d="M182.8,287.4c0.3,0,0.6,0,0.9,0c1.7-3.5,7.1-9.3,14.4-10.7c0.2,0,0.3-0.2,0.3-0.4c0-0.2-0.2-0.3-0.4-0.3
							C190.4,277.4,184.4,283.5,182.8,287.4z"/>
					</g>
				</g>
			</g>
			<g>
				<path class="st2" d="M241.4,111.8c0,0-4.6-2.2-7.8-8.3c-3.2-6.1-2.8-11.6-2.8-11.6s-5.8-0.9-14.5,1.7c-8.7,2.6-19,6.1-27.7,1.1
					c-8.7-5-8.7-12.9-4.4-16.2c4.8-3.7,14.2-1.4,14.2-1.4s-3.6-3.5-1.7-5.6c2-2.1,9.1,0.6,9.1,0.6s8.7-6.9,25.1-6.1
					c16.4,0.8,24.3,12.3,25.2,25.1c0.9,12.8-3.7,25.7-3.7,25.7L241.4,111.8z"/>
			</g>
			<g>
				<g>
					<path class="st7" d="M208,114.9c0.9,2.3,0.9,5,1.1,7.4c0.2,1.9,0.5,4.1-1.2,5.4c-0.8,0.6-4.8,2.3-2.7,3.6
						c0.8,0.5,2.1,0.4,2.9,0.3c0.6,0,1.2-0.1,1.8-0.1c0.6,0,1.3-0.2,1.9-0.2c0.4,0,0.5,0.5,0.2,0.7c-1,0.7-2.6,0.9-3.8,0.9
						c-1.2,0-2,0-3.1-0.6c-0.7-0.3-1.3-0.8-1.4-1.6c-0.1-0.9,0.6-1.7,1.2-2.2c0.8-0.6,1.7-0.9,2.5-1.4c1.1-0.8,1-2.1,0.9-3.3
						c-0.2-2.9-0.9-5.8-1.1-8.8C207.3,114.6,207.9,114.6,208,114.9L208,114.9z"/>
				</g>
			</g>
			<g>
				
					<ellipse transform="matrix(0.9847 -0.1743 0.1743 0.9847 -18.0683 37.0305)" class="st2" cx="201.8" cy="121.4" rx="2.3" ry="3.2"/>
			</g>
			<g>
				<ellipse transform="matrix(0.9891 -0.1472 0.1472 0.9891 -15.3 33.375)" class="st2" cx="217.9" cy="120.1" rx="2.5" ry="3.4"/>
			</g>
			<g>
				<g>
					<path class="st2" d="M203.3,114.6c-1,0.2-1.9,0-2.9,0.1c-0.2,0-0.5,0.1-0.7,0.1c-0.2,0,0.3,0,0.1,0c0,0-0.1,0-0.1,0
						c-0.1,0-0.2,0-0.4,0.1c-0.2,0.1-0.4,0.1-0.6,0.2c-0.2,0-0.4,0.1-0.6,0.1c-0.1,0-0.2,0-0.3,0c0.1,0,0.1,0,0.2,0c0,0-0.4,0-0.4,0
						c-0.6-0.1-0.9-0.8-0.7-1.3c0-0.2,0.1-0.3,0.2-0.4c0-0.1,0.1-0.1,0.1-0.2c0,0-0.1,0.1-0.1,0.1c0-0.1,0.1-0.1,0.1-0.2
						c0.1-0.1,0.1-0.2,0.2-0.2c0.1-0.1,0.2-0.1,0.2-0.2c0.3-0.2,0.6-0.3,0.9-0.4c0.6-0.1,1.2-0.2,1.8-0.2c0.6,0,1.2,0.1,1.8,0.1
						c0.5,0.1,1.1,0.2,1.5,0.6c0.3,0.2,0.5,0.6,0.5,1C203.9,114.2,203.6,114.6,203.3,114.6L203.3,114.6z"/>
				</g>
			</g>
			<g>
				<g>
					<path class="st2" d="M214.3,111.9c0.1-0.1,0.3-0.1,0.4-0.2c0.1-0.1,0.4-0.2,0.2-0.1c0.1,0,0.2-0.1,0.3-0.1
						c0.4-0.2,0.8-0.3,1.2-0.4c0.9-0.2,1.9-0.3,2.9-0.2c1,0.1,2,0.4,2.9,0.9c0.1,0.1,0.3,0.2,0.4,0.3c0.1,0.1,0.1,0.2,0.2,0.3
						c0,0,0-0.1-0.1-0.1c0.3,0.2,0.4,0.5,0.4,0.8c0,0.3-0.2,0.6-0.4,0.7c-0.3,0.2-0.7,0.1-1,0c0.2,0,0.3,0,0.5,0
						c-0.3,0-0.5,0.1-0.8,0c0,0-0.3-0.1-0.1,0c0.2,0-0.3,0-0.3,0c-0.1,0-0.4,0,0,0c-0.1,0-0.1,0-0.2,0c-0.2,0-0.3,0-0.5-0.1
						c-0.7-0.1-1.4-0.1-2-0.1c-0.6,0-1.3,0-1.9,0c-0.3,0-0.5,0-0.8,0c-0.2,0-0.1,0,0,0c-0.1,0-0.1,0-0.2,0c-0.1,0-0.2,0.1-0.3,0.1
						c-0.4,0.2-1-0.2-1.1-0.6C213.7,112.6,213.9,112.1,214.3,111.9L214.3,111.9z"/>
				</g>
			</g>
			<g>
				<path class="st2" d="M209.4,140.6c-0.9-1.9-2.7-3.3-4.7-4.2c1.7-0.2,9.9-0.9,12,0.2c2.3,1.3-0.4,6.6-5.2,6.9c-0.5,0-1,0-1.4-0.1
					C210,142.5,209.8,141.5,209.4,140.6z"/>
			</g>
			<g>
				<path class="st8" d="M247.2,129.5c0,0-0.8,3.2-5.6,6.9c-4.8,3.7-11.7,6.4-11.7,6.4l-0.6-2.4c0,0,7.1-3.1,10.4-6.5
					c3.3-3.4,3.7-5.3,3.7-5.3L247.2,129.5z"/>
			</g>
			<g>
				<path class="st2" d="M228.6,138.7c-3.8-0.2-6,2.8-6.2,4.8c-0.3,2,1.6,4.2,5.9,2.2C233.6,143.3,232.4,138.9,228.6,138.7z"/>
			</g>
			<g>
				<path class="st8" d="M244.2,105.8c0,0-1.7-11.9-9.6-20c-15.2-15.4-28.1-14.5-28.1-14.5s0.1-2.2,5-3.8c4.6-1.6,6.6-0.7,6.6-0.7
					s12.5,1,23.1,12.7c10.6,11.7,11.7,26.6,11.7,26.6L244.2,105.8z"/>
			</g>
			<g>
				<g>
					<path class="st3" d="M245.3,104.4c10-1.7,15.5,6.1,15.9,14c0.4,7.9-5.3,13.8-12.9,13.2C231.2,130.2,233.1,106.4,245.3,104.4z"
						/>
				</g>
				<g>
					<path class="st9" d="M250.3,123.9c2.6,0,4.9-1.3,6.1-3.6c1.4-2.5,1.2-5.6-0.3-7.8c-0.1-0.2-0.3-0.2-0.5-0.1
						c-0.2,0.1-0.2,0.4-0.1,0.5c1.4,2,1.5,4.8,0.3,7c-1.2,2.1-3.2,3.3-5.7,3.3c-2.3-0.1-4.2-1.1-5.4-2.9c-1.4-2.1-1.7-5-0.8-7.3
						c0.9-2.4,3.3-4,5.6-3.7c0.2,0,0.4-0.1,0.4-0.3c0-0.2-0.1-0.4-0.3-0.4c-2.6-0.3-5.4,1.4-6.4,4.1c-1,2.6-0.6,5.7,0.9,8
						c1.4,2,3.5,3.2,6,3.3C250.1,123.9,250.2,123.9,250.3,123.9z"/>
				</g>
			</g>
			<g>
				<path class="st2" d="M257.5,156.4c0,0,30.2,7.4,40.8,19.4S313.8,247,314,258c0.2,11-7.4,15.5-12,18.6
					c-4.6,3.1-24.6,8.7-40.8,9.5c-16.1,0.8-31.4,0-31.4,0s0.1-3.5-2.4-8.7c-2.3-4.8-5.2-5.8-5.2-5.8l13.9-5c0,0,2.4-43.5,6.2-64.6
					C246.6,177.9,257.5,156.4,257.5,156.4z"/>
			</g>
			<g>
				<path class="st6" d="M207.5,259.7c0.1,0,0.1,0,0.2,0c0.3-0.1,0.4-0.4,0.3-0.7c-2.8-6.4-5.8-18.9-7.4-27.7l-0.1-0.7
					c-0.5-2.6-1.1-5.8,0.1-8c0.6-1.1,2.1-3.6,3.4-6c1.4-2.5,2.8-4.8,3.1-5.5c0.7-1.4-1.6-5-4.9-9.9c-0.9-1.3-1.7-2.5-2.1-3.3
					c-1.2-2-0.4-3.9,0.5-6.1l0.3-0.7c0.8-2,1.8-4.1,2.7-6c0.4-0.8,0.7-1.6,1.1-2.4c0.5-1.1,1-2.2,1.5-3.3c2.9-6.5,5.9-13.3,9.8-19.8
					c0.1-0.2,0.1-0.5-0.2-0.7c-0.2-0.1-0.5-0.1-0.7,0.2c-3.9,6.6-6.9,13.3-9.9,19.9c-0.5,1.1-1,2.2-1.5,3.3
					c-0.4,0.8-0.7,1.6-1.1,2.4c-0.9,2-1.9,4-2.7,6.1l-0.3,0.7c-0.9,2.2-1.9,4.5-0.5,7c0.5,0.8,1.3,2,2.2,3.3c1.7,2.6,5.3,8,4.8,8.9
					c-0.4,0.7-1.7,3-3.1,5.4c-1.4,2.4-2.8,4.8-3.4,6c-1.4,2.5-0.8,6-0.2,8.7l0.1,0.7c0.6,3.2,3.8,19.6,7.5,27.9
					C207.1,259.6,207.3,259.7,207.5,259.7z"/>
			</g>
			<g>
				<path class="st6" d="M236.9,261.5c0.1,0,0.3,0,0.4-0.1c2.4-2.4,13.7-22,14.5-25.7c0.5-2-0.7-7.1-1.8-12.1
					c-0.9-3.8-1.8-7.8-1.5-8.9c0.4-1.6,3.3-4,6.1-6.3c3.4-2.8,6.9-5.6,7.6-8.2c0.8-2.9,0.1-21.3-0.3-33.4c-0.2-4.4-0.3-7.8-0.3-9
					c0-0.3-0.2-0.5-0.5-0.5c0,0,0,0,0,0c-0.3,0-0.5,0.2-0.5,0.5c0,1.2,0.1,4.7,0.3,9.1c0.4,11.3,1.1,30.3,0.4,33.1
					c-0.6,2.3-4.1,5.1-7.2,7.7c-3.1,2.5-6,4.9-6.4,6.8c-0.3,1.3,0.5,5,1.5,9.3c1,4.6,2.2,9.9,1.8,11.7c-0.8,3.6-12,22.9-14.3,25.2
					c-0.2,0.2-0.2,0.5,0,0.7C236.7,261.4,236.8,261.5,236.9,261.5z"/>
			</g>
			<g>
				<path class="st6" d="M277.6,252.9C277.6,252.9,277.6,252.9,277.6,252.9c0.3,0,0.5-0.3,0.5-0.6c-0.4-2.6-6.1-54.4-6.4-58.4
					c0-0.3-0.3-0.5-0.5-0.5c-0.3,0-0.5,0.3-0.5,0.5c0.3,4,6,55.8,6.4,58.4C277.1,252.7,277.4,252.9,277.6,252.9z"/>
			</g>
			<g>
				<path class="st6" d="M236.4,267c0.1,0,0.1,0,0.2,0c1.3-0.5,6.9-2.4,14-4.8c14.4-4.8,34-11.5,37.8-13.4c0.2-0.1,0.3-0.4,0.2-0.7
					c-0.1-0.2-0.4-0.3-0.7-0.2c-3.7,1.9-24.1,8.8-37.6,13.4c-7.1,2.4-12.8,4.3-14.1,4.8c-0.3,0.1-0.4,0.4-0.3,0.7
					C236,266.9,236.2,267,236.4,267z"/>
			</g>
			<g>
				<path class="st6" d="M243.3,287.6c12.6,0,37.1-2.3,55.7-8.9c0.3-0.1,0.4-0.4,0.3-0.6c-0.1-0.3-0.4-0.4-0.6-0.3
					c-23.5,8.3-56.4,9.7-62.5,8.4c-0.3-0.1-0.5,0.1-0.6,0.4c-0.1,0.3,0.1,0.5,0.4,0.6C237.3,287.4,239.9,287.6,243.3,287.6z"/>
			</g>
		</g>
		<g>
			<g>
				<g>
					<path class="st10" d="M393.7,151.6c0-2.9-0.5-5.7-0.5-8.6c0-2.8,0.3-5.6,0.4-8.4c0.1-2.9-0.4-7-3.9-7.5
						c-4.3-0.5-8.8,3.3-10.9,6.8c-1,1.6-1.7,3.6-1.3,5.5c0.3,1.7,1.3,3.1,2.2,4.5c0.9,1.6,1.5,3.1,0,4.5c-1.6,1.5-3.8,2.3-5.5,3.6
						c-3.5,2.7-4.9,6.9-5.1,11.2c-0.2,3.1,0,6.1-0.1,9.2c-0.1,3.1-0.4,6.1-0.7,9.2c0,0,0,0.1,0,0.1c-0.2,0.7-0.2,1.6,0,0.9
						c0.4-1.5,2.8-3.5,3.8-4.7c1.3-1.6,2.5-3.3,3.8-4.9c3.4-4,8.4-6.2,12.3-9.7C391.6,160.2,393.8,156.5,393.7,151.6z"/>
					<path class="st10" d="M354.5,216.3c0.5,1.5,1.2,3.1,1.3,4.7c0,0.5,5.1,0.1,6.8-0.6c1.1-0.5,2.1-1.2,2.9-2.1
						c1.6-2,2.1-4.7,2.9-7.1c1.2-3.3,3.3-5.4,6.6-6.5c2.9-1,6.1-1.4,9.1-1.5c4.3-0.1,9.8,0.6,11.6-4.4c0.6-1.7,0.4-3.3,0.3-5.1
						c-0.1-1.8,0-3.4,0.9-5c1.5-2.8,3.7-5.2,5.4-7.8c1.6-2.5,2.9-5.3,3-8.3c0.1-2.4-0.4-5.5-2.4-7.2c-3.7-3.1-8.8,1.7-10.9,4.5
						c-2.9,3.8-4,9.1-7.9,12c-1.2,0.9-2.3,1-3.7,0.7c-1.2-0.3-2.3-0.7-3.5-0.7c-1.9,0-3.6,0.7-5.1,2c-2.4,2.1-3.9,5-5.2,7.9
						c-1.3,3-2.3,6.2-3.3,9.3c-1.2,3.8-2.7,7.5-4,11.2c-0.7,2.1-1,4.5-1.9,6.6c0.1-0.5,0.1-1,0.2-1.4c0.3-2.3,0.5-4.5,0.6-6.8
						c0.2-2.5,0.3-4.9,0.3-7.4c0-2,0.3-5.2-1.3-11.4c-1-3.8-3.1-7.4-3-11.5c0.1-4.2,1.7-8.3,3.1-12.3c1.6-4.8,2.8-9.6,2.2-14.7
						c-0.2-1.7-0.6-3.7-1.9-4.8c-1.3-1.2-3.1-0.7-4.5,0.1c-5.4,3-5.8,9.6-5.6,15.1c0.2,3.8,1.3,7.2,2.1,10.9
						c0.2,0.7,1.1,4.9,0.1,5.1c-0.6,0.1-1.2-0.9-1.4-1.4c-0.3-0.8-0.6-1.6-0.9-2.4c-0.7-2-1.3-4.1-2.3-6c-0.5-1.1-1.4-2.8-2.8-3
						c-1.8-0.2-2.6,2-2.7,3.4c-0.2,2.9,0.6,5.8,0.7,8.6c0.1,3.9-0.1,7.9,1.4,11.6c1.4,3.6,3.8,6.8,5.9,10.1c1.5,2.4,2.8,4.8,3.9,7.4
						C352.6,210.9,353.7,213.6,354.5,216.3z"/>
					<path class="st10" d="M327,217c0.2,2.4,1.1,4.6,2.7,6.4c1.8,1.9,4.3,2.5,6.4,3.9c1.1,0.7,2.3,1.7,2.5,3.1
						c0.3,1.4-0.5,2.7-1.2,3.9c-1.3,2.2-2.5,4.3-2.8,6.8c-0.2,1.9,0,4.1,1.5,5.5c1.9,1.9,5,2.1,7.4,3.3c5.2,2.6,8.9,6.9,12.1,11.7
						c0.3,0.4,1,0.1,0.8-0.3c-0.1-0.2-0.2-0.3-0.2-0.5c-0.5-3.3-1.3-6.5-2.1-9.7c-0.8-3.2-1.3-6.5-1.9-9.7
						c-0.9-4.8-1.9-9.9-3.9-14.4c-0.7-1.7-1.7-3.3-3.2-4.4c-1.6-1.3-3.5-1.8-5.4-2.4c-3-0.9-5.1-2.6-6.2-5.6c-1-2.6-1.7-5.5-2-8.3
						c-0.2-1.6-0.1-3.2-0.2-4.8c-0.1-1-0.1-2.5-1.1-3.1c-0.2-0.1-0.4,0-0.5,0.1c-1.4,2.6-1.3,5.8-1.7,8.7
						C327.3,210.4,326.7,213.8,327,217z"/>
					<path class="st10" d="M360.3,240.7c-2.8,6.4-4.1,13-4.2,19.9c0,0.3,0.5,0.5,0.6,0.4c0.3,0.2,0.1,0.6,0.1,0.2
						c0.3-4.7,3.6-9.5,7.2-12.4c3.5-2.8,7.7-4.6,11.8-6.3c1.9-0.8,3.8-1.6,5.6-2.5c1.4-0.7,2.9-1.4,4.1-2.5c2.4-2.3,1.3-6-1.1-7.8
						c-2-1.6-4.4-1.7-6.7-2.5c1.9-2.5,4.4-4.3,6.6-6.5c1.5-1.4,3.7-3.7,3.1-6c-0.9-3.9-5.6-1.3-7.6,0c-3.7,2.5-7,5.5-9.8,9.1
						C366.2,228.8,362.9,234.8,360.3,240.7z"/>
				</g>
				<g>
					<path class="st11" d="M379.6,159.2c-1.5,3.1-3.1,6.2-4.8,9.3c-1.6,2.9-3.2,5.9-4.4,9c-1.5,3.9-3,7.7-4.6,11.5
						c-1.6,4-3.1,8.1-4.3,12.2c-2.3,8.1-4,16.4-4.8,24.8c-0.4,4.3-0.6,8.5-0.5,12.8c0.1,3.3,0.5,6.7,0.8,10c0.3,3.5,0.6,7,0.3,10.4
						c-0.2,2.9-0.7,6.4-3,8.4c-0.4,0.4-1.1-0.1-0.8-0.6c2.7-5.5,2.5-11.5,2-17.4c-0.3-3.3-0.7-6.6-0.8-9.9c-0.1-4.2,0-8.4,0.4-12.6
						c0.8-8.2,2.4-16.3,4.5-24.3c1.1-4.1,2.4-8.1,4-12c1.6-3.9,3.4-7.8,4.9-11.7c2.7-7.2,6.9-13.5,10.6-20.2
						C379.3,158.5,379.8,158.8,379.6,159.2L379.6,159.2z"/>
				</g>
				<g>
					<path class="st11" d="M356.6,217.8c-0.4-5.2-0.9-10.2-2.7-15.2c-0.8-2.3-1.8-4.6-2.6-6.9c-0.7-1.9-1.6-4.6-1.1-6.6
						c0.1-0.2,0.4-0.2,0.5,0c0.3,1.2,0.3,2.5,0.5,3.7c0.2,1.2,0.6,2.3,0.9,3.4c0.8,2.4,1.8,4.7,2.7,7.1c1.7,4.6,2.6,9.7,2.2,14.6
						C356.9,218,356.6,218,356.6,217.8L356.6,217.8z"/>
				</g>
				<g>
					<path class="st11" d="M386.8,187.8c-2.1,5-8.3,5.3-12.8,6.4c-3.2,0.8-5.6,3-7.3,5.8c-1.9,3.1-3.2,6.7-4.2,10.1c0,0-0.1,0-0.1,0
						c1.3-6,3.1-13.2,9.3-16c5-2.2,11.5-1.1,14.7-6.5C386.4,187.3,386.9,187.5,386.8,187.8L386.8,187.8z"/>
				</g>
				<g>
					<path class="st11" d="M359.8,217c-0.2,0.3-0.5,0.7-0.7,1c-0.1,0.2-0.3,0.3-0.4,0.4c-0.2,0.1-0.4,0.3-0.6,0.3
						c-0.1,0-0.2-0.1-0.1-0.2c0.1-0.2,0.3-0.3,0.4-0.4c0.1-0.1,0.3-0.3,0.4-0.4c0.3-0.3,0.6-0.6,0.8-0.9
						C359.8,216.9,359.9,216.9,359.8,217L359.8,217z"/>
				</g>
				<g>
					<path class="st11" d="M372.8,232.9c-3.6,2.9-6.9,6.4-9.5,10.2c-1.3,1.8-2.4,3.7-3.5,5.7c-1.1,2.1-1.9,4.4-2.8,6.6
						c-0.1,0.2-0.4,0.2-0.4,0c0.5-4.7,3.5-8.7,5.9-12.7c1.2-2,2.8-3.7,4.4-5.4c1.7-1.8,3.5-3.4,5.5-4.8
						C372.7,232.3,373,232.7,372.8,232.9L372.8,232.9z"/>
				</g>
				<g>
					<path class="st11" d="M344.3,227.3c1.7,1,1.8,3.7,1.8,5.4c0.1,3.3-0.8,6.5,0.7,9.6c1.3,2.9,3.4,5.3,5.1,7.9
						c1.6,2.5,3.1,5.7,3.1,8.7c0,0.2-0.3,0.3-0.3,0.1c-0.6-1.4-0.9-2.9-1.3-4.3c-0.5-1.6-1.2-3.1-2.1-4.5c-1.6-2.5-3.6-4.7-4.9-7.4
						c-1.4-2.8-1.2-5.6-1.1-8.6c0.1-1.9,0.3-5.1-1.3-6.5C343.7,227.6,344.1,227.2,344.3,227.3L344.3,227.3z"/>
				</g>
			</g>
			<path class="st3" d="M355.8,259.3c6.9-0.1,20.1-0.2,20.1-0.2l-3.3,24.3c-0.7,5.5-5.4,9.5-10.9,9.5h-5.7h-0.6h-5.7
				c-5.5,0-10.2-4.1-10.9-9.5l-3.3-24.3C335.7,259.2,348.9,259.2,355.8,259.3z"/>
		</g>
		<g>
			<g>
				<g>
					<polygon class="st12" points="20.7,214.8 60.3,293.1 175.6,293.9 140,213.6 					"/>
				</g>
				<g>
					<path class="st13" d="M252.1,293.4l0-6.3h-74.6l-34.3-75.3H23.7l-3,2.9h116.6l35.7,78.6C173,293.4,252.1,293.2,252.1,293.4z"/>
				</g>
				<g>
					<path class="st13" d="M80.6,258c1.3,3.9,8.4,6.9,15.8,6.7c7.4-0.2,12.4-3.5,11.1-7.4c-1.3-3.9-8.4-6.9-15.8-6.7
						C84.3,250.8,79.3,254.1,80.6,258z"/>
				</g>
			</g>
			<g>
				<path class="st3" d="M173,293.9c0.1,0,0.1,0,0.2,0c0.3-0.1,0.4-0.4,0.2-0.7l-35.8-78.9H20.7c-0.3,0-0.5,0.2-0.5,0.5
					c0,0.3,0.2,0.5,0.5,0.5H137l35.6,78.3C172.7,293.8,172.9,293.9,173,293.9z"/>
			</g>
		</g>
		<g>
			<g>
				
					<rect x="257.3" y="299.4" transform="matrix(-1 -4.490065e-11 4.490065e-11 -1 651.8234 629.1624)" class="st14" width="137.2" height="30.4"/>
				
					<rect x="11.3" y="299.4" transform="matrix(-1 -4.490021e-11 4.490021e-11 -1 269.4196 629.1624)" class="st15" width="246.8" height="30.4"/>
			</g>
			<polygon class="st16" points="257.3,299.4 258.1,299.4 394.5,299.4 394.5,305 258.1,305 257.3,305 11.3,305 11.3,299.4 			"/>
			
				<rect x="251.3" y="293.4" transform="matrix(-1 -4.490642e-11 4.490642e-11 -1 652.4437 594.1965)" class="st17" width="149.8" height="7.4"/>
			
				<rect x="5.3" y="293.4" transform="matrix(-1 -4.490021e-11 4.490021e-11 -1 257.4188 594.1965)" class="st18" width="246.8" height="7.4"/>
		</g>
		<g>
			<path class="st3" d="M292,133.8h48.4c3,0,5.4-2.4,5.4-5.4v-24.2c0-3-2.4-5.4-5.4-5.4H292c-3,0-5.4,2.4-5.4,5.4v24.2
				C286.5,131.4,289,133.8,292,133.8z"/>
			<polygon class="st3" points="272.7,116.3 290.9,108.6 290.9,124 			"/>
			<g>
				<circle class="st2" cx="327.7" cy="116.3" r="3.3"/>
				<circle class="st2" cx="316.2" cy="116.3" r="3.3"/>
				<circle class="st2" cx="304.7" cy="116.3" r="3.3"/>
			</g>
		</g>
		<g>
			<path class="st1" d="M45.4,24.4h111.8c7.2,0,13,5.8,13,13v53c0,7.2-5.8,13-13,13h-10c-0.3,4.8,0.4,12,4.4,21.1
				c-12.9-6-20.4-14.9-24.2-21.1h-82c-7.2,0-13-5.8-13-13v-53C32.4,30.2,38.2,24.4,45.4,24.4z"/>
			<path class="st3" d="M93.1,49.7h55.4c1.5,0,2.8-1.2,2.8-2.8l0,0c0-1.5-1.2-2.8-2.8-2.8H93.1c-1.5,0-2.8,1.2-2.8,2.8l0,0
				C90.4,48.4,91.6,49.7,93.1,49.7z"/>
			<path class="st19" d="M53.4,65.8h96.3c0.9,0,1.7-0.8,1.7-1.7l0,0c0-0.9-0.8-1.7-1.7-1.7H53.4c-0.9,0-1.7,0.8-1.7,1.7l0,0
				C51.7,65,52.4,65.8,53.4,65.8z"/>
			<path class="st19" d="M53.4,75.1h96.3c0.9,0,1.7-0.8,1.7-1.7l0,0c0-0.9-0.8-1.7-1.7-1.7H53.4c-0.9,0-1.7,0.8-1.7,1.7l0,0
				C51.7,74.4,52.4,75.1,53.4,75.1z"/>
			<path class="st19" d="M74.4,85.1h75.3c0.9,0,1.7-0.8,1.7-1.7l0,0c0-0.9-0.8-1.7-1.7-1.7H74.4c-0.9,0-1.7,0.8-1.7,1.7l0,0
				C72.7,84.4,73.4,85.1,74.4,85.1z"/>
			<path class="st3" d="M54.1,49.7h26.5c1.5,0,2.8-1.2,2.8-2.8l0,0c0-1.5-1.2-2.8-2.8-2.8H54.1c-1.5,0-2.8,1.2-2.8,2.8l0,0
				C51.4,48.4,52.6,49.7,54.1,49.7z"/>
		</g>
		<g>
			<path class="st3" d="M120.8,171.7h30c1.1,0,2-0.9,2-2v-20.5c0-1.1-0.9-2-2-2h-30c-1.1,0-2,0.9-2,2v20.5
				C118.8,170.8,119.7,171.7,120.8,171.7z"/>
			<g>
				<g>
					<path class="st17" d="M135.6,163.1c0.2,0,0.3-0.1,0.5-0.2l16.3-13.5c0.3-0.3,0.4-0.7,0.1-1.1c-0.3-0.3-0.7-0.4-1.1-0.1
						l-15.9,13.1l-15.5-13.4c-0.3-0.3-0.8-0.2-1.1,0.1c-0.3,0.3-0.2,0.8,0.1,1.1l15.9,13.9C135.2,163,135.4,163.1,135.6,163.1z"/>
				</g>
				<g>
					<path class="st17" d="M151.9,171.1c0.2,0,0.4-0.1,0.5-0.2c0.3-0.3,0.3-0.8,0-1.1l-11.4-12c-0.3-0.3-0.8-0.3-1.1,0
						c-0.3,0.3-0.3,0.8,0,1.1l11.4,12C151.5,171,151.7,171.1,151.9,171.1z"/>
				</g>
				<g>
					<path class="st17" d="M119.7,170.7c0.2,0,0.4-0.1,0.5-0.2l11.4-11.4c0.3-0.3,0.3-0.8,0-1.1c-0.3-0.3-0.8-0.3-1.1,0l-11.4,11.4
						c-0.3,0.3-0.3,0.8,0,1.1C119.3,170.6,119.5,170.7,119.7,170.7z"/>
				</g>
			</g>
			<g>
				<g>
					<circle class="st20" cx="117.2" cy="146.4" r="10"/>
				</g>
			</g>
		</g>
		<g>
			<g>
				<path class="st2" d="M16.4,142.7h58.6c2.2,0,4-1.8,4-4v-9.2c0-2.2-1.8-4-4-4H16.4c-2.2,0-4,1.8-4,4v9.2
					C12.4,140.9,14.2,142.7,16.4,142.7z"/>
			</g>
			<g>
				<path class="st3" d="M70.1,138.3c-0.2-0.2-0.2-0.4-0.2-0.7l0.3-2.2c0-0.1,0-0.1,0-0.1c0,0-0.1,0-0.1,0l-1.8,1.4
					c-0.2,0.1-0.5,0.2-0.7,0.2c-0.3,0-0.4-0.2-0.6-0.4c-0.2-0.2-0.2-0.5-0.1-0.7c0.1-0.2,0.3-0.4,0.5-0.5l2.1-0.9
					c0.1,0,0.1,0,0.1-0.1c0,0,0-0.1-0.1-0.1l-2.1-0.9c-0.2-0.1-0.4-0.3-0.5-0.5c-0.1-0.2-0.1-0.5,0.1-0.8c0.1-0.2,0.3-0.4,0.6-0.4
					c0.3,0,0.5,0,0.7,0.2l1.8,1.3c0.1,0,0.1,0,0.1,0c0,0,0-0.1,0-0.1l-0.3-2.2c0-0.3,0-0.5,0.2-0.7c0.2-0.2,0.4-0.3,0.6-0.3
					c0.3,0,0.5,0.1,0.7,0.3c0.2,0.2,0.2,0.4,0.2,0.7l-0.3,2.2c0,0.1,0,0.1,0,0.1c0,0,0.1,0,0.1,0l1.8-1.4c0.2-0.2,0.5-0.2,0.7-0.2
					c0.2,0,0.4,0.2,0.6,0.4c0.1,0.2,0.2,0.5,0.1,0.7c-0.1,0.2-0.2,0.4-0.5,0.5l-2.1,0.9c-0.1,0-0.1,0-0.1,0.1c0,0,0,0.1,0.1,0.1
					l2.1,0.9c0.2,0.1,0.4,0.3,0.5,0.5s0.1,0.5-0.1,0.8c-0.1,0.2-0.3,0.4-0.6,0.4c-0.2,0-0.5,0-0.7-0.2l-1.8-1.3c-0.1,0-0.1,0-0.1,0
					c0,0,0,0.1,0,0.1l0.3,2.2c0,0.3-0.1,0.5-0.2,0.7c-0.2,0.2-0.4,0.3-0.6,0.3C70.5,138.6,70.3,138.5,70.1,138.3z"/>
			</g>
			<g>
				<path class="st3" d="M58,138.3c-0.2-0.2-0.2-0.4-0.2-0.7l0.3-2.2c0-0.1,0-0.1,0-0.1c0,0-0.1,0-0.1,0l-1.8,1.4
					c-0.2,0.1-0.5,0.2-0.7,0.2c-0.3,0-0.4-0.2-0.6-0.4c-0.1-0.2-0.2-0.5-0.1-0.7c0.1-0.2,0.3-0.4,0.5-0.5l2.1-0.9
					c0.1,0,0.1,0,0.1-0.1c0,0,0-0.1-0.1-0.1l-2.1-0.9c-0.2-0.1-0.4-0.3-0.5-0.5c-0.1-0.2-0.1-0.5,0.1-0.8c0.1-0.2,0.3-0.4,0.6-0.4
					c0.3,0,0.5,0,0.7,0.2l1.8,1.3c0.1,0,0.1,0,0.1,0c0,0,0-0.1,0-0.1l-0.3-2.2c0-0.3,0-0.5,0.2-0.7c0.2-0.2,0.4-0.3,0.6-0.3
					c0.3,0,0.5,0.1,0.7,0.3c0.2,0.2,0.2,0.4,0.2,0.7l-0.3,2.2c0,0.1,0,0.1,0,0.1c0,0,0.1,0,0.1,0l1.8-1.4c0.2-0.2,0.5-0.2,0.7-0.2
					c0.2,0,0.4,0.2,0.6,0.4c0.1,0.2,0.2,0.5,0.1,0.7c-0.1,0.2-0.2,0.4-0.5,0.5l-2.1,0.9c-0.1,0-0.1,0-0.1,0.1c0,0,0,0.1,0.1,0.1
					l2.1,0.9c0.2,0.1,0.4,0.3,0.5,0.5s0.1,0.5-0.1,0.8c-0.1,0.2-0.3,0.4-0.6,0.4c-0.2,0-0.5,0-0.7-0.2l-1.8-1.3c-0.1,0-0.1,0-0.1,0
					c0,0,0,0.1,0,0.1l0.3,2.2c0,0.3-0.1,0.5-0.2,0.7c-0.2,0.2-0.4,0.3-0.6,0.3C58.4,138.6,58.2,138.5,58,138.3z"/>
			</g>
			<g>
				<path class="st3" d="M45.9,138.3c-0.2-0.2-0.2-0.4-0.2-0.7l0.3-2.2c0-0.1,0-0.1,0-0.1c0,0-0.1,0-0.1,0l-1.8,1.4
					c-0.2,0.1-0.5,0.2-0.7,0.2c-0.3,0-0.4-0.2-0.6-0.4c-0.2-0.2-0.2-0.5-0.1-0.7c0.1-0.2,0.3-0.4,0.5-0.5l2.1-0.9
					c0.1,0,0.1,0,0.1-0.1c0,0,0-0.1-0.1-0.1l-2.1-0.9c-0.2-0.1-0.4-0.3-0.5-0.5c-0.1-0.2-0.1-0.5,0.1-0.8c0.1-0.2,0.3-0.4,0.6-0.4
					c0.3,0,0.5,0,0.7,0.2l1.8,1.3c0.1,0,0.1,0,0.1,0c0,0,0-0.1,0-0.1l-0.3-2.2c0-0.3,0-0.5,0.2-0.7c0.2-0.2,0.4-0.3,0.6-0.3
					c0.3,0,0.5,0.1,0.7,0.3c0.2,0.2,0.2,0.4,0.2,0.7l-0.3,2.2c0,0.1,0,0.1,0,0.1c0,0,0.1,0,0.1,0l1.8-1.4c0.2-0.2,0.5-0.2,0.7-0.2
					c0.2,0,0.4,0.2,0.6,0.4c0.1,0.2,0.2,0.5,0.1,0.7c-0.1,0.2-0.2,0.4-0.5,0.5L48,134c-0.1,0-0.1,0-0.1,0.1c0,0,0,0.1,0.1,0.1
					l2.1,0.9c0.2,0.1,0.4,0.3,0.5,0.5c0.1,0.2,0.1,0.5-0.1,0.8c-0.1,0.2-0.3,0.4-0.6,0.4c-0.2,0-0.5,0-0.7-0.2l-1.8-1.3
					c-0.1,0-0.1,0-0.1,0c0,0,0,0.1,0,0.1l0.3,2.2c0,0.3-0.1,0.5-0.2,0.7c-0.2,0.2-0.4,0.3-0.6,0.3C46.3,138.6,46.1,138.5,45.9,138.3
					z"/>
			</g>
			<g>
				<path class="st3" d="M33.8,138.3c-0.2-0.2-0.2-0.4-0.2-0.7l0.3-2.2c0-0.1,0-0.1,0-0.1c0,0-0.1,0-0.1,0l-1.8,1.4
					c-0.2,0.1-0.5,0.2-0.7,0.2c-0.3,0-0.4-0.2-0.6-0.4c-0.2-0.2-0.2-0.5-0.1-0.7c0.1-0.2,0.3-0.4,0.5-0.5l2.1-0.9
					c0.1,0,0.1,0,0.1-0.1c0,0,0-0.1-0.1-0.1l-2.1-0.9c-0.2-0.1-0.4-0.3-0.5-0.5c-0.1-0.2-0.1-0.5,0.1-0.8c0.1-0.2,0.3-0.4,0.6-0.4
					c0.3,0,0.5,0,0.7,0.2l1.8,1.3c0.1,0,0.1,0,0.1,0c0,0,0-0.1,0-0.1l-0.3-2.2c0-0.3,0-0.5,0.2-0.7c0.2-0.2,0.4-0.3,0.6-0.3
					c0.3,0,0.5,0.1,0.7,0.3c0.2,0.2,0.2,0.4,0.2,0.7l-0.3,2.2c0,0.1,0,0.1,0,0.1c0,0,0.1,0,0.1,0l1.8-1.4c0.2-0.2,0.5-0.2,0.7-0.2
					c0.2,0,0.4,0.2,0.6,0.4c0.1,0.2,0.2,0.5,0.1,0.7c-0.1,0.2-0.2,0.4-0.5,0.5l-2.1,0.9c-0.1,0-0.1,0-0.1,0.1c0,0,0,0.1,0.1,0.1
					l2.1,0.9c0.2,0.1,0.4,0.3,0.5,0.5c0.1,0.2,0.1,0.5-0.1,0.8c-0.2,0.2-0.3,0.4-0.6,0.4c-0.2,0-0.5,0-0.7-0.2l-1.8-1.3
					c-0.1,0-0.1,0-0.1,0c0,0,0,0.1,0,0.1l0.3,2.2c0,0.3-0.1,0.5-0.2,0.7c-0.2,0.2-0.4,0.3-0.6,0.3C34.2,138.6,33.9,138.5,33.8,138.3
					z"/>
			</g>
			<g>
				<path class="st21" d="M21.6,138.3c-0.2-0.2-0.2-0.4-0.2-0.7l0.3-2.2c0-0.1,0-0.1,0-0.1c0,0-0.1,0-0.1,0l-1.8,1.4
					c-0.2,0.1-0.5,0.2-0.7,0.2c-0.3,0-0.4-0.2-0.6-0.4c-0.1-0.2-0.2-0.5-0.1-0.7c0.1-0.2,0.3-0.4,0.5-0.5l2.1-0.9
					c0.1,0,0.1,0,0.1-0.1c0,0,0-0.1-0.1-0.1l-2.1-0.9c-0.2-0.1-0.4-0.3-0.5-0.5c-0.1-0.2-0.1-0.5,0.1-0.8c0.1-0.2,0.3-0.4,0.6-0.4
					c0.3,0,0.5,0,0.7,0.2l1.8,1.3c0.1,0,0.1,0,0.1,0c0,0,0-0.1,0-0.1l-0.3-2.2c0-0.3,0-0.5,0.2-0.7c0.2-0.2,0.4-0.3,0.6-0.3
					c0.3,0,0.5,0.1,0.7,0.3c0.2,0.2,0.2,0.4,0.2,0.7l-0.3,2.2c0,0.1,0,0.1,0,0.1c0,0,0.1,0,0.1,0l1.8-1.4c0.2-0.2,0.5-0.2,0.7-0.2
					c0.2,0,0.4,0.2,0.6,0.4c0.1,0.2,0.2,0.5,0.1,0.7c-0.1,0.2-0.2,0.4-0.5,0.5l-2.1,0.9c-0.1,0-0.1,0-0.1,0.1c0,0,0,0.1,0.1,0.1
					l2.1,0.9c0.2,0.1,0.4,0.3,0.5,0.5c0.1,0.2,0.1,0.5-0.1,0.8c-0.1,0.2-0.3,0.4-0.6,0.4c-0.2,0-0.5,0-0.7-0.2l-1.8-1.3
					c-0.1,0-0.1,0-0.1,0c0,0,0,0.1,0,0.1l0.3,2.2c0,0.3-0.1,0.5-0.2,0.7c-0.2,0.2-0.4,0.3-0.6,0.3C22,138.6,21.8,138.5,21.6,138.3z"
					/>
			</g>
		</g>
	</g>
</g>
</svg>
