<?xml version="1.0" encoding="utf-8"?>
<!-- Generator: Adobe Illustrator 21.0.0, SVG Export Plug-In . SVG Version: 6.00 Build 0)  -->
<svg version="1.1" id="Layer_1" xmlns="http://www.w3.org/2000/svg" xmlns:xlink="http://www.w3.org/1999/xlink" x="0px" y="0px"
	 viewBox="0 0 3840 1564.2" style="enable-background:new 0 0 3840 1564.2;" xml:space="preserve">
<style type="text/css">
	.st0{fill:#CDCDCD;}
</style>
<path class="st0" d="M3840,61.6c0,480,0,960,0,1440c-16.3-0.5-32.5-1.3-48.8-1.4c-18.7-0.1-37.3,1.1-54.3-10
	c-5.3-3.4-15.6-4.5-20.8-1.7c-11.4,6.3-21.9,3.1-33,2.1c-17.8-1.7-35.7-3.4-53.6-3.7c-25.9-0.5-51.9,0.3-77.8,0.2
	c-8.9,0-17.8-0.7-26.6-1.6c-1.8-0.2-3.5-2.7-6.7-5.3c-6,0-14.3-0.2-22.5,0.1c-3,0.1-7.1,0.7-8.6,2.7c-4.1,5.3-13.9,8.2-19.3,5.9
	c-5.3-2.3-11.4-4.1-17-3.8c-12.9,0.6-25.8,4.1-38.6,3.7c-16.7-0.5-32.5,5.3-49.8,2.4c-16.7-2.8-34.4,0.1-51.6,0.6
	c-11.6,0.3-24-1.6-34.6,1.9c-17,5.5-33.6,3.5-50.4,2.7c-37.9-1.8-75.7-4.6-113.6-6c-13.2-0.5-27.3-0.4-39.5,3.9
	c-17.9,6.3-35.2,5.1-53,3.3c-11.9-1.2-23.8-2.5-35.8-3.3c-2.6-0.2-5.3,1.3-7.8,2.3c-3.4,1.3-6.7,4-10.1,4.1
	c-10.8,0.2-21.7-1.8-32.3-0.8c-17.8,1.7-35.5,5-53.2,7.6c-0.7,0.1-1.5,0-1.9,0.4c-8.3,6.4-16.9,4.8-25.3-0.1
	c-2.6,10.9-17.7,12.1-32.4,3.5c-2.2,1.4-6.1,4.1-6.2,3.9c-4.8-6.5-9.5-1-14,0.2c-7,1.7-13.8,4.2-20.8,5.7
	c-7.7,1.6-14.2,1.5-16.6-8.9c-0.7-2.9-9.9-7.3-11.6-6c-10.6,7.8-23.5,4.5-34.7,9.4c3.6,6-0.2,9.4-6.1,10.6
	c-5.2,1.1-11.6,6.7-14.9-1.3c-8.2,3.4-16.2,6.8-25.4,10.7c-2.9-1.5-7.9-10.3-11.5,1.2c-0.1,0.5-2.5,0.3-3.8,0.3
	c-6.3,0.1-12.7-0.4-18.9,0.2c-16.8,1.6-34.3,1.3-50,6.5c-10.2,3.4-19.9,5.1-30.3,6.2c-12.1,1.2-25.1,1.9-35.7,7
	c-23.1,10.9-30.9,10.5-46.3-9c-0.2-0.3-0.4-0.5-0.6-0.8c-5.2-6-19.3-6.5-22.8,0.2c-5.6,10.6-14.3,11.1-23.8,9.3
	c-8.8-1.7-17.3-4.8-25.9-7.4c-10-2.9-19.4-3.6-28.4,3.6c-2.3,1.9-8.3,2.2-10.5,0.6c-12-9.2-26.2-8.6-40-10.5
	c-10.8-1.5-22.7-1.9-31.8-6.9c-10.5-5.9-22.1-5.5-31.8-6.1c-28.3-1.7-56.9,1.6-85.4,2.7c-3.2,0.1-6.5-1.2-9.8-1.8
	c-6-1.2-11.9-3.1-17.9-3.5c-8.6-0.6-17.4,0.4-26-0.3c-21.7-1.8-43.3-4.1-65-6.2c0.2-0.5,0.4-1,0.6-1.5c-5.4,2.5-10.8,4.9-17.2,7.8
	c6.4,1.3,11.9,2.4,19.2,3.9c-28.7,0.4-55.8,4.2-80.4-10.8c-0.7-0.4-2-0.1-2.9,0.1c-9.6,1.9-19.3,3.8-30,5.9c2.4,1.3,3.8,2,5.1,2.7
	c-5.4,1.7-12.7,3.9-15.9,1.3c-10.8-9.1-21.1-4.1-32-2.1c-6.3,1.2-13-0.3-19.5-0.2c-6.2,0.1-13.4-6.9-18.7,2.6
	c-0.6,1.2-5.1,0.2-7.8,0.2c-1-1.6-2-3.2-3-4.8c4.6-1.8,9.1-3.6,13.7-5.5c-0.9-1.5-1.8-3-2.7-4.4c-25,1.4-50,2.3-74.9,4.4
	c-6,0.5-8.9-1.3-8.9-5.9c0-12-7.6-11.7-15.5-10.3c-16.4,2.7-32.7,6-49.1,9c-2.6,0.5-6.6,1.8-7.7,0.6c-6.7-7.3-13.2-1.8-19.7-0.4
	c-2.9,0.6-6.4,2.5-8.7,1.5c-14.3-6-28.3-0.5-42.3,1c-5.1,0.5-11.7-1-13.4,7.3c-0.2,1.1-5.6,1.3-8.6,1.7c-4.5,0.6-9.2,0.6-13.6,1.6
	c-2,0.5-3.5,3.8-5.4,4c-12.5,1.3-25,1.9-37.5,3c-13,1.1-26.2,1.2-38.7,4.3c-11.9,2.9-11.7,4.1-13.4-7.7c-0.4-2.7-3.8-4.9-5.9-7.3
	c-4.4,7.1-18.8-0.1-19,13.5c0,1.1-4.9,2.5-7.7,3.2c-2.3,0.6-5-0.3-7.2,0.5c-9.2,3.4-17.9,2.3-27.4-0.1c-7.2-1.8-15.3-0.1-23,0.5
	c-4.3,0.3-8.5,1.8-12.8,2.2c-6.4,0.6-13.5-0.9-19.2,1.4c-11.7,4.6-16.9,2.8-20-9.2c-1.1-4.3-3.1-8.5-5.4-12.3
	c-0.9-1.5-3.8-1.9-5.8-2.8c-0.5,2-0.9,4-1.5,6c-0.1,0.4-1,0.6-1.7,1c-2.1-1.4-4.2-2.8-6.5-4.2c-3.3,13.1-7.9,16.3-17.6,12.5
	c-14.9-5.8-14.9-5.8-24.2,6.1c-6.3-7-14-9-23.4-7.9c-4.6,0.5-10-0.8-14.1-3c-7.3-3.9-14-4.9-22-2.5c-12.6,3.8-25.7,9.3-38.3,8.8
	c-10.4-0.4-20.8-5.3-31.9-2c-1,0.3-2.6-1.6-4-2.1c-3.1-1.1-6.3-2.8-9.4-2.7c-19.6,0.6-39.2,1.8-58.8,2.4
	c-11.2,0.3-22.4,0.3-33.5-0.5c-9-0.6-17.8-3.1-26.8-3.9c-9.3-0.7-18.7,0.2-28-0.6c-18.4-1.6-36.7-3.9-55.1-5.9
	c0.2-0.6,0.4-1.2,0.7-1.9c-5.6,2.6-11.2,5.2-17.9,8.2c6.5,1.3,11.8,2.3,17.1,3.4c-15.7,0.9-31.4,1.1-46.7-1
	c-10.8-1.5-22.2-10.5-31.6-8.4c-15.3,3.3-27.9-2.7-41.7-4.2c-1.6-0.2-3.3,0.2-5,0.2c-9,0.1-18,0.9-26.8,0.1c-19.4-1.8-38.6-5-58-6.6
	c-44.2-3.7-88.6-11.8-132.5,2.8c-0.9,0.3-2,0.5-2.9,0.5c-1.3,0.1-3.4,0.4-3.8-0.2c-4.8-7-10.4-2.6-15.8-1.3c-3.9,1-8.5,3.5-11.6,2.3
	c-14.8-5.8-28.9-0.3-43.3,1.2c-4.8,0.5-11-0.8-12.5,7c-0.2,1.2-7.1,2.9-8.3,1.7c-5.7-5.6-9.5-0.9-13.8,1.5c-2,1.1-3.4,3.9-5.3,4.1
	c-12.1,1.3-24.3,2-36.5,3.1c-13.5,1.3-27.4,1.6-40.5,4.7c-10.8,2.6-11.4,3.4-12.6-8.1c-0.5-5.5-1.5-10.3-8.6-4.7
	c-1.5,1.2-4.4,0.7-6.7,1.1c-4,0.7-7.7,0.9-8.7,6.7c-0.4,2.5-5.3,5-8.6,6.1c-3.4,1.2-7.4,0.7-11.1,0.9c-5.6,0.4-12.5,3.2-16.4,0.8
	c-18-10.7-35.9,7.4-53.4-0.7c-0.5-0.2-1.5,1.1-2.4,1.5c-20.7,8.7-20.4,8.6-27.8-13.4c-1.3-4-5.4-7-8.2-10.5c-0.9,0.5-1.8,1-2.6,1.5
	c-0.3,2.3-0.6,4.5-1,7.6c-3-1.8-5.4-3.3-7.9-4.9c-3,13.1-7.8,16.3-17.7,12.4c-14.3-5.7-14.3-5.7-24.7,6.8
	c-4.7-9.6-13.5-8.4-21.9-8.5c-4.5-0.1-9.7,0.1-13.3-2c-8.8-5.3-16.9-6.2-26.6-2.1c-6.6,2.8-14.2,3.4-21.3,4.9
	c-5.4,1.1-10.8,2.7-16.2,3c-5.1,0.3-10.3-1.3-15.4-1.1c-7,0.2-13.9,1.9-20.8,1.8c-10.9-0.1-22-2.4-31.3,6.5c8.3,1.1,16.6,2.3,25,3.4
	c0,1.2,0,2.4,0,3.6c-3.3,0.3-6.7,0.9-10,0.7c-2.8-0.2-5.6-2.1-8.3-1.8c-11.2,1-22.2,2.8-32-5.3c-1.2-1-5,1-7.6,1.6
	c0-509.3,0-1018.7,0-1528c2.3,0.9,5.9,3.1,6.9,2.3c10.9-9.3,23.1-7.9,35.6-5.2c1.3,0.3,3.7-0.2,4.3-1.1c5-7.7,7.6-1.3,13.8,2.4
	c-10.9,1.4-19.2,2.5-27.3,3.6c10.7,10.4,23.1,6.6,34.9,6.3c11.8-0.4,22.6,4.8,35.5,1.4c9.6-2.5,21.9,3.1,32.4,7
	c10.6,3.9,19.8,4.4,29.4-2.1c2.8-1.9,7.3-2.8,10.5-2c10.1,2.5,18.1-0.5,25-7.7c8.3,12.7,8.9,12.8,22.7,7c10.3-4.4,15.1-1.8,17.7,9.5
	c0.2,0.8,0.8,1.5,1.3,2.2c2.5-1.6,4.6-3,7.4-4.7c0.4,3.1,0.7,5.3,1,7.8c8.6-2.8,8.6-2.8,13.2-18.9c2.3-8.1,10.1-12.3,16.5-8.1
	c7.4,4.9,14.3,7.6,23,3.6c2.6-1.2,7.7-1.1,9.5,0.6c8,7.7,17.4,6.1,25.2,2.4c13.5-6.5,25.7,2.1,38.6,1c1.3-0.1,3.8,1.6,3.9,2.6
	c0.7,9.4,8.5,7.7,14.2,10.5c10.4,5.1,10.8,0.3,10.7-7.6c-0.1-5.2,2.5-9.3,7.9-6.7c17.8,8.3,36.5,5.4,55.1,6.2
	c11.7,0.5,24.2,0.6,34.5,8.9c2.2,1.7,7.3-0.7,10.9-0.2c3.3,0.5,6.5,2.1,9.4,3.7c1.5,0.8,2.4,3.6,3.8,3.8c14.5,1.8,29,3.3,43.6,4.7
	c7.3,0.7,14.6,0.8,22,1.1c3.5,0.2,7,0.8,10.4,0.5c3.5-0.3,7-2.6,10.3-2.2c9.2,1.2,18.3,3.5,27.5,5c10.1,1.7,20.5,5,30.5,4.2
	c39.3-3.3,78.6-6.5,117.6-12.5c22.9-3.5,46.8,4.9,68.6-6.8c0.5-0.3,1.3-0.1,2,0c9.3,1.8,17.4,1.5,27.3-2c21.8-7.7,45.1-9.2,67.3-5.4
	c-4.4,0.9-9.9,2.1-16.3,3.4c6.8,3,12.3,5.5,18,8c4.4-1.1,9.4-3.2,14.5-3.6c22.6-1.8,45.2-2.9,67.7-4.7c9-0.7,17.8-3.2,26.8-3.9
	c9.8-0.7,19.7-0.2,29.6-0.2c15,0,30,0.6,44.9,0c10.1-0.4,21.2,8.1,30.4-2.8c0.3-0.3,1.3,0,1.9,0c6.4,0.1,12.9,0.6,19.3,0.2
	c4.2-0.3,8.6-3.3,12.5-2.7c10.7,1.7,21.6,3.7,31.7,7.4c10.8,3.9,20.3,4.8,30.3-1.9c3.1-2.1,8.2-1.5,12.4-1.4
	c8.6,0.2,16.7-0.6,22.9-8.6c4.2,9,9.8,13.7,20.3,8.6c13.2-6.4,17.5-3.9,21.1,10.5c2.5-1.5,4.9-3,7.3-4.4c1,2.8,1.7,5,2.5,7.2
	c2.2-1.1,5.6-1.7,6.5-3.5c2.5-4.9,4-10.3,5.8-15.5c2.4-7,11.3-11.1,17.1-7.4c7,4.5,13.8,7.2,22.2,3.2c2.6-1.2,7.7-1.2,9.5,0.5
	c8,7.7,17.5,6.3,25.2,2.5c13.5-6.7,25.8,2.2,38.6,0.9c1.3-0.1,3.9,1.6,3.9,2.6c0.6,9.5,8.4,7.9,14.1,10.6c11.3,5.5,10.8-0.8,11-8.3
	c0.1-5.7,3.4-8.1,8.6-5.7c15.8,7.4,32.4,6.5,49.1,5.8c13.9-0.6,27.3,1.1,39.4,9.1c2.6,1.7,7.4-0.3,11.1,0c3.2,0.3,6.5,1.1,9.4,2.5
	c2.8,1.4,4.8,4.7,7.7,5.7c22.2,7.7,46.1-1.6,68.4,6.6c0.8,0.3,2.6,0.2,2.9-0.3c4.4-7.4,10.8-3.1,16-2.3c15.8,2.4,31.4,5.9,47.2,8.4
	c7,1.1,13.4,0.7,13.5-9.5c0-2.5,4.7-7.1,7.1-7c12,0.4,24,2.6,36,3.1c13.7,0.6,27.5,0.1,41.3,0.1c0.8-1.3,1.7-2.7,2.5-4
	c-4.4-2-8.9-4-13.3-6c0.9-1.4,1.9-2.9,2.8-4.3c2.6,0.3,6.8-0.2,7.4,1c4.6,9.8,13.5,4.4,17.9,2.8c8-2.9,14.3-2.5,22.3-0.3
	c8.2,2.2,18.9,3.7,25.7,0.1c7.7-4,13.3-3.4,20.9-1.4c-2,1-3.3,1.7-5.8,3c10.7,2.1,20.3,4.1,30,5.7c1.9,0.3,4.2-1,6.3-1.8
	c5.5-2.1,10.9-5.6,16.6-6.1c19.5-2,39.1-2.9,58.6-4.3c0,0.7,0.1,1.3,0.1,2c-5.5,1.2-10.9,2.3-17.3,3.7c6.9,3.1,12.4,5.5,18,8
	c3.9-1,8.3-2.3,12.7-3.4c34-7.9,69.5,0.1,103.5-9.9c6.2-1.8,13.7,0.8,20.6,1.1c21.6,0.8,43.2,1.5,64.7,2.1c2.5,0.1,6.8,0.6,7.4-0.6
	c3.4-6.5,7.9-4.1,12.8-2.8c2.4,0.6,6,1,7.7-0.3c18.4-14.9,42.1-6.4,62-14.3c4-1.6,8-3.4,12.1-4.5c4-1.1,9.8-3.5,11.9-1.7
	c10.7,8.6,21.6,6.6,33.1,2.9c8.5-2.7,17.3-5.9,26-6.4c5.9-0.3,13.8,2.1,17.7,6.2c10.4,11.1,19.1,11.5,27.9-0.6
	c3.4-4.6,7.6-11.6,11.9-11.9c9.6-0.7,20.1,0.5,29.2,3.9c12.3,4.6,24,10.3,37.6,9.7c4.6-0.2,9.5-0.9,13.8,0.2
	c7.5,2,14.4,6.7,21.9,7.7c15.7,2.2,31.7,2.8,47.5,3.9c7,0.5,18.5-2,20.1,1.1c5.6,10.4,9.3,2.4,13.9-0.1c2.1,2.2,3.6,5.1,5.8,5.9
	c6,2.2,12.4,3.4,18.6,5.1c2.4-1.6,5.6-2.9,8.4-2.2c7.1,1.6,16.2,2,12.2,12.9c7.6,1.3,14.6,2.6,21.5,3.8c3.6,0.6,7.6,0.5,10.5,2.2
	c8.3,4.7,11.8,3.3,15.2-5c1.4-3.4,6-7.1,9.5-7.5c5-0.5,10.3,1.9,15.4,3.3c7.2,1.9,14.3,4.4,21.6,5.8c3.1,0.6,6.7-0.7,10-1.1
	c12.7-6.7,29.3-5.3,32.5,3.9c6.4-0.8,12.6-2.5,18.6-2.1c5.9,0.5,11.5,3.8,17.4,4.8c9.2,1.6,19.1,0.5,27.6,3.7
	c10.3,3.9,19.7,3.7,30.2,2.2c8.6-1.3,20-2.4,26,2.1c7.4,5.4,13.7,4.6,20.8,4.2c10.3-0.7,20.5-3,30.7-3.5c12.6-0.6,26.3-3.2,37.5,0.8
	c17.6,6.3,35.2,7.4,53,6.9c36.9-1.1,73.8-4,110.6-6c12.3-0.7,25.5-3.7,36.7-0.3c20.9,6.2,41.5,6.4,62.3,3.8
	c17.1-2.2,33.7,4.2,51.1-0.2c8.3-2.1,18.2,2.7,27.4,3.8c16.8,2,33.6,3.9,50.5,5c4.5,0.3,9.1-2.9,13.8-3.2c6.4-0.4,18.4-0.1,18.5,0.9
	c1.1,10,8,5.9,12.7,6.1c7.3,0.3,14.6,0.1,21.9,0.1c1.5-2.9,3.3-4.7,5.4-4.9c5.9-0.6,11.8-0.4,17.7-0.6c17.6-0.7,35.2-2.6,52.8-2.1
	c31.3,0.9,62.5,4.3,93.4-3.7c6.1-1.6,14.6-3.1,18.9-0.1c12.5,8.6,23.3,5,34.5-1c8.6-4.5,17.1-8.4,27.3-7.5
	c9.8,0.9,19.7,0.8,29.5,0.5C3813.5,63.1,3826.7,62.2,3840,61.6z"/>
</svg>
